<svg xmlns="http://www.w3.org/2000/svg" xmlns:xlink="http://www.w3.org/1999/xlink" version="1.1" x="0px" y="0px" viewBox="0 10 150 160" enable-background="new 0 0 161.492 162.732" xml:space="preserve">
    <path fill="#668" d="M119.598,32.167c-0.805,0-1.451,0.649-1.451,1.452v7.974l-8.312,16.539L99.34,51.065l-6.361-10.033v-7.413  c0-0.803-0.646-1.452-1.451-1.452c-0.8,0-1.452,0.649-1.452,1.452v6.426L73.658,57.516l-8.743-18.186v-5.712  c0-0.803-0.649-1.452-1.452-1.452s-1.451,0.649-1.451,1.452v6.055L54.636,59.85L36.85,42.602v-8.983  c0-0.803-0.649-1.452-1.452-1.452s-1.451,0.649-1.451,1.452v96.508c0,0.085,0.034,0.164,0.051,0.249  c-0.003,0.596,0.349,1.154,0.938,1.369c0.165,0.061,0.334,0.088,0.499,0.088c0.592,0,1.148-0.362,1.363-0.952l12.377-33.852  l12.836,13.339v19.759c0,0.8,0.649,1.451,1.451,1.451s1.452-0.651,1.452-1.451v-21.466l15.158-17.31l10.003,20.811v17.965  c0,0.8,0.652,1.451,1.452,1.451c0.805,0,1.451-0.651,1.451-1.451v-18.206l10.744-21.378l14.424,14.605v24.979  c0,0.8,0.646,1.451,1.451,1.451c0.8,0,1.452-0.651,1.452-1.451V33.619C121.05,32.816,120.398,32.167,119.598,32.167z M36.85,53.508  l14.535,15.238l-5.239,14.327l-9.295-9.517V53.508z M36.85,84.219l6.432,6.685l-6.432,17.594V84.219z M36.85,82.13v-6.495  l8.743,8.947l-1.757,4.808L36.85,82.13z M47.843,86.886l1.417,1.451l-1.772,4.848l-1.415-1.469L47.843,86.886z M48.393,85.375  l5.225-14.287l1.409,1.477l-5.213,14.263L48.393,85.375z M69.93,70.248l-5.015,5.729v-7.039l2.9-3.084L69.93,70.248z M69.947,63.587  l2.254-2.398l2.007,4.173l-2.2,2.515L69.947,63.587z M64.915,66.818v-6.997l2.225,4.63L64.915,66.818z M62.012,67.003l-1.372-1.33  l1.372-3.756V67.003z M62.012,69.023v8.76l-4.193-4.394l2.273-6.226L62.012,69.023z M55.583,71.045l-1.409-1.477l2.197-6.013  l1.44,1.397L55.583,71.045z M57.264,74.909l4.749,4.978v19.425l-9.948-10.183L57.264,74.909z M64.915,78.18l5.698-6.509  l6.447,13.411L64.915,99.062V78.18z M72.691,69.299l2.203-2.515l6.435,13.389l-2.197,2.526L72.691,69.299z M92.979,48.533  l5.296,3.566l8.136,12.839l-6.662,13.259l-6.77-6.667V48.533z M90.076,70.103l-6.675,7.683l-6.429-13.375L90.076,49.44V70.103z   M82.012,81.596l1.657,3.444l-2.201,2.512l-1.65-3.431L82.012,81.596z M84.083,79.212l5.993-6.899v5.406l-4.331,4.946L84.083,79.212  z M90.076,79.921v11.757l-3.646-7.589L90.076,79.921z M92.979,79.666l3.997,4.048l-3.997,7.955V79.666z M92.979,77.599v-4.031  l6.084,5.995l-1.396,2.781L92.979,77.599z M101.234,81.701l2.467,2.427l-1.44,2.869l-2.443-2.473L101.234,81.701z M101.92,80.338  l6.305-12.542l2.053,3.24l-5.892,11.729L101.92,80.338z M118.147,80.743l-5.301-8.36l3.935-7.827l1.366,0.859V80.743z   M111.038,69.525l-2.053-3.24l2.619-5.213l2.75,1.851L111.038,69.525z M112.086,73.894l6.061,9.559v12.865l-11.589-11.413  L112.086,73.894z M118.147,63.728l-0.709-0.479l0.709-1.409V63.728z M118.147,48.051v7.331l-3.136,6.234l-2.749-1.852  L118.147,48.051z M109.177,59.439l-2.007,3.988l-5.896-9.31L109.177,59.439z M96.341,49.046l-3.362-2.262v-3.042L96.341,49.046z   M90.076,42.166v5.072l-13.79,15.75l-1.953-4.068L90.076,42.166z M71.526,59.785l-2.254,2.398l-4.357-9.063v-7.087L71.526,59.785z   M62.012,48.128v5.335l-3.654,9.996l-1.44-1.397L62.012,48.128z M54.088,61.341l-2.148,5.886L36.85,51.407v-6.784L54.088,61.341z   M36.85,122.285v-5.332l8.672-23.72l1.415,1.469L36.85,122.285z M49.729,95.512l1.783-4.87l10.5,10.747v6.886L49.729,95.512z   M64.915,106.458v-5.185L77.746,86.51l1.642,3.419L64.915,106.458z M82.151,88.975l2.198-2.515l5.727,11.912v7.093L82.151,88.975z   M92.979,105.458v-7.326l6.151-12.237l2.438,2.469L92.979,105.458z M104.409,89.174l1.463-2.905l12.275,12.091v4.723L104.409,89.174  z"/>
    <!-- TODO: credit author <text x="0" y="177.732" fill="#000000" font-size="5px" font-weight="bold" font-family="'Helvetica Neue', Helvetica, Arial-Unicode, Arial, Sans-serif">Created by sachin modgekar</text> -->
    <!-- TODO: credit author <text x="0" y="182.732" fill="#000000" font-size="5px" font-weight="bold" font-family="'Helvetica Neue', Helvetica, Arial-Unicode, Arial, Sans-serif">from the Noun Project</text> -->
</svg>